<svg width="16" height="16" viewBox="0 0 16 16" fill="none" xmlns="http://www.w3.org/2000/svg">
<path d="M15.8333 13.8334H1.5V0.833415C1.5 0.741748 1.425 0.666748 1.33333 0.666748H0.166667C0.075 0.666748 0 0.741748 0 0.833415V15.1667C0 15.2584 0.075 15.3334 0.166667 15.3334H15.8333C15.925 15.3334 16 15.2584 16 15.1667V14.0001C16 13.9084 15.925 13.8334 15.8333 13.8334ZM3 12.5001H14.1667C14.2583 12.5001 14.3333 12.4251 14.3333 12.3334V3.25008C14.3333 3.10008 14.1521 3.02716 14.0479 3.13133L9.66667 7.51258L7.05417 4.92925C7.02284 4.89823 6.98054 4.88083 6.93646 4.88083C6.89238 4.88083 6.85007 4.89823 6.81875 4.92925L2.88125 8.87925C2.86596 8.89457 2.85385 8.91277 2.84562 8.93279C2.8374 8.95281 2.83322 8.97427 2.83333 8.99591V12.3334C2.83333 12.4251 2.90833 12.5001 3 12.5001Z" fill="#23856D"/>
</svg>
